<svg id="Layer_2" data-name="Layer 2" xmlns="http://www.w3.org/2000/svg" viewBox="0 0 726.71 926.95"><defs><style>.cls-1{fill:#262262;}.cls-2{fill:#f15a29;}</style></defs><path class="cls-1" d="M914.56,799.09c-24,5.42-48.37,11.95-73,19.65q-18.57,5.76-37.3,12.43l-2.5-6.81-9.21-25.18L726.93,620,637.69,863.81,624,901.27l-6.81,18.64C543.4,965,482.92,1016.44,440.64,1068.62l14.29-39L474.56,976,665.9,453.26l61-166.74,61,166.74,34.94,95.43L863.28,659l40.63,111,9.24,25.21Z" transform="translate(-386.64 -286.52)"/><path class="cls-2" d="M1113.36,803.18c-20.28,13.42-40.39,28.13-60.12,44.08a783.5,783.5,0,0,0-69.42,63.28c-.87.87-1.71,1.75-2.54,2.63q-9.24,9.57-17.9,19.29c-32.71,36.51-59.94,74.39-81.06,112-19.21,34.23-33.37,68.25-42,100.85q-3.24-12.39-5.42-25.06a318.48,318.48,0,0,1,15.19-163.8Q855,943.09,861.17,930q-9.58,2-19.24,4.14l-2.95.67q-21.88,5-44,11.09c-82.38,22.66-157.25,54.12-220.5,90.69-87,50.29-152,110.26-184.47,170.43l0,.08c-1.16,2.12-2.24,4.24-3.3,6.37,4.4-20.63,12.56-41.87,24.16-63.36,35.44-65.65,102.88-133.45,192.4-192.1v0c48.68-31.9,103.9-61.11,164-85.81q22.88-9.39,45.62-17.47,14.08-5,28.09-9.55c27.78-9,55.26-16.52,82.2-22.64q12.78-2.89,25.35-5.36l1.07-.21C1008,805.56,1063.48,801,1113.36,803.18Z" transform="translate(-386.64 -286.52)"/></svg>